<?xml version="1.0" encoding="UTF-8"?>
<svg id="_图层_2" data-name="图层 2" xmlns="http://www.w3.org/2000/svg" viewBox="0 0 515.45 55.9">
  <defs>
    <style>
      .cls-1 {
        fill: #6e29f5;
      }
    </style>
  </defs>
  <g id="_图层_1-2" data-name="图层 1">
    <g>
      <path class="cls-1" d="M106.05,1.97h-48.21c-2.66,0-4.82,2.16-4.82,4.82v14.46c0,2.66-2.16,4.82-4.82,4.82H4.82c-2.66,0-4.82,2.16-4.82,4.82v19.28c0,2.66,2.16,4.82,4.82,4.82h48.21c2.66,0,4.82-2.16,4.82-4.82v-14.46c0-2.66,2.16-4.82,4.82-4.82h43.39c2.66,0,4.82-2.16,4.82-4.82V6.79c0-2.66-2.16-4.82-4.82-4.82Z"/>
      <g>
        <path d="M166.54,40.15c0-12.5-29.62-2.12-29.62-23.03,0-10.99,9.85-16.06,18.64-16.06,6.51,0,12.04,2.05,17.27,6.36l-4.02,6.82c-4.01-3.79-8.26-5.53-13.26-5.53-4.55,0-9.92,2.5-9.92,8.1,0,12.5,29.62,2.12,29.62,23.03,0,11.21-10.08,16.06-19.47,16.06-7.95,0-15.38-2.95-20.23-9.17l4.24-7.2c4.85,6.06,10,8.71,15.98,8.71,5.07,0,10.76-2.35,10.76-8.1Z"/>
        <path d="M186.03,0c2.8,0,4.92,2.05,4.92,4.92s-2.12,4.92-4.92,4.92-4.92-2.05-4.92-4.92,2.12-4.92,4.92-4.92ZM181.86,17.12h8.33v37.87h-8.33V17.12Z"/>
        <path d="M199.02,1.97h8.33v53.03h-8.33V1.97Z"/>
        <path d="M220.34,0c2.8,0,4.92,2.05,4.92,4.92s-2.12,4.92-4.92,4.92-4.92-2.05-4.92-4.92,2.12-4.92,4.92-4.92ZM216.18,17.12h8.33v37.87h-8.33V17.12Z"/>
        <path d="M231.12,36.06c0-11.51,8.56-19.85,20.3-19.85,6.51,0,12.2,2.8,15.68,7.05l-6.21,5.07c-2.05-2.58-5.45-4.39-9.47-4.39-6.89,0-11.97,5-11.97,12.12s5.07,12.12,11.97,12.12c4.02,0,7.42-1.82,9.47-4.39l6.21,5.08c-3.48,4.24-9.17,7.04-15.68,7.04-11.74,0-20.3-8.33-20.3-19.85Z"/>
        <path d="M289.8,16.21c11.51,0,20.3,8.41,20.3,19.85s-8.79,19.85-20.3,19.85-20.3-8.41-20.3-19.85,8.79-19.85,20.3-19.85ZM289.8,23.94c-6.97,0-11.97,5.3-11.97,12.12s5,12.12,11.97,12.12,11.97-5.3,11.97-12.12-5-12.12-11.97-12.12Z"/>
        <path d="M324.92,34.62v20.38h-8.33V17.12h8.33v5.98c2.2-4.55,7.04-6.89,12.04-6.89,8.56,0,15.07,5.91,15.07,17.04v21.74h-8.33v-21.44c0-6.14-3.64-9.47-8.94-9.47-5.68,0-9.85,3.79-9.85,10.53Z"/>
        <path d="M369.61,55h-8.71V1.97h33.71v7.95h-25v15.15h22.27v7.8h-22.27v22.12Z"/>
        <path d="M399.78,1.97h8.33v53.03h-8.33V1.97Z"/>
        <path d="M434.84,16.21c11.51,0,20.3,8.41,20.3,19.85s-8.79,19.85-20.3,19.85-20.3-8.41-20.3-19.85,8.79-19.85,20.3-19.85ZM434.84,23.94c-6.97,0-11.97,5.3-11.97,12.12s5,12.12,11.97,12.12,11.97-5.3,11.97-12.12-5-12.12-11.97-12.12Z"/>
        <path d="M507.29,17.12h8.16l-10.34,37.88h-11.06l-7.27-28.18-7.75,28.18h-11.06l-9.93-37.88h8.32l7.43,30.23,8.24-30.23h9.53l7.91,30.23,7.83-30.23Z"/>
      </g>
    </g>
  </g>
</svg>